<svg id="Capa_1" enable-background="new 0 0 512.001 512.001" height="512" viewBox="0 0 512.001 512.001" width="512" xmlns="http://www.w3.org/2000/svg"><g><g><g><path d="m332.358 332.738 8.456 1.3c37.052 5.698 66.952 33.287 75.605 69.763l23.888 100.699h-371.629l23.888-100.699c8.653-36.475 38.553-64.065 75.605-69.763l8.456-1.3z" fill="#70d9e6"/><path d="m157.114 504.5-59.83-42.86c-8.3 6.07-15.7 11.5-22.33 16.4l17.61-74.24c.37-1.54.77-3.07 1.22-4.58 3.895-3.917 9.997-5.329 14.66-1.89l71.01 50.74 152.9-115.33 8.46 1.3c21.52 3.31 40.62 14 54.55 29.53-61.46 42.4-147.25 108.78-188.33 140.93z" fill="#22c7db"/><path d="m440.302 504.5h-32.2l-23.88-100.7c-8.66-36.47-38.56-64.06-75.61-69.76l-8.45-1.3h32.2l8.45 1.3c37.05 5.7 66.95 33.29 75.61 69.76z" fill="#22c7db"/><path d="m229.451 267.616v21.738c0 12.73-6.979 24.403-18.147 30.513-8.602 4.706-20.203 9.678-34.677 12.871 0 0 28.897 33.62 77.868 33.62s77.867-33.62 77.867-33.62c-14.721-3.247-26.471-8.335-35.116-13.112-10.983-6.069-17.709-17.72-17.709-30.268v-21.742z" fill="#fc9085"/><path d="m286.642 310.47c-9.99 2.91-20.74 4.41-32.15 4.41-11.43 0-22.2-1.5-32.2-4.43 4.56-5.96 7.16-13.33 7.16-21.1v-21.73h50.08v21.74c0 7.75 2.57 15.15 7.11 21.11z" fill="#fc7c6a"/><g><g><path d="m147.186 84.239c-7.858 20.158 10.383 105.106 8.207 97.237h198.201c-1.93 7.506 19.641-86.968 3.003-124.658-15.087-34.178-87.012-35.527-110.054-29.451-32.733 8.631-87.062 25.333-99.357 56.872z" fill="#6c3328"/><g fill="#873f30"><path d="m155.397 181.472h.118c.108.669.079.708-.118 0z"/><path d="m129.513 181.472h.118c.109.669.079.708-.118 0z"/><path d="m327.62 181.472h.088c-.137.521-.157.502-.088 0z"/></g></g><g><g fill="#fc9085"><ellipse cx="352.246" cy="166.322" rx="32.301" ry="27.526" transform="matrix(.338 -.941 .941 .338 76.807 441.774)"/><ellipse cx="156.742" cy="166.322" rx="27.526" ry="32.301" transform="matrix(.941 -.338 .338 .941 -46.934 62.654)"/></g><path d="m203.768 96.359c-19.602 0-35.493 15.891-35.493 35.493v55.032s0 102.998 86.219 102.998 86.219-102.998 86.219-102.998v-55.032c0-19.602-15.891-35.493-35.493-35.493z" fill="#fda79b"/><path d="m323.172 101.23c-5.28 20.82-21.52 38.97-61.48 38.97-38.12 0-61.63-13.78-91.1-20.98 5.09-13.37 18.02-22.86 33.18-22.86h101.45c6.55 0 12.69 1.77 17.95 4.87z" fill="#fc9085"/></g><path d="m260.669 7.5c66.026 0 64.668 32.038 64.668 54.9 0 27.214-12.016 57.508-63.645 57.508-45.176 0-69.839-19.35-108.224-24.187-9.224-1.162-14.501-11.121-10.473-19.5 12.294-25.57 43.961-68.721 117.674-68.721z" fill="#ba5d4f"/><path d="m325.339 62.404c0 27.211-12.013 57.509-63.643 57.509-4.67 0-9.123-.206-13.389-.58 42.409-4.345 52.722-32.392 52.722-57.794 0-20.045 1.032-47.059-41.938-54.019.521-.02 1.052-.02 1.583-.02 66.022 0 64.665 32.038 64.665 54.904z" fill="#a34f41"/><path d="m254.494 247.981c-13.509 0-24.46-10.951-24.46-24.46v-7.942h48.919v7.942c.001 13.509-10.95 24.46-24.459 24.46z" fill="#f8f3f1"/></g></g><g><path d="m145.264 447.87h218.46v56.63h-218.46z" fill="#eaf9fa"/><path d="m280.384 447.87c-29.12 22.16-55.47 42.63-73.35 56.63h-49.92l-11.85-8.49v-48.14z" fill="#a8e7ef"/></g></g><g><path d="m472.897 228.714c-16.221-3.92-53.763-11.436-97.644-9.774-8.419.319-13.082 9.912-8.154 16.745l17.144 23.771c-83.098 58.2-204.787 155.992-204.787 155.992l-71.009-50.733c-3.853-2.753-9.061-2.597-12.76.359-27.22 21.751-46.661 40.397-60.545 55.817-2.623 2.913-4.071 6.681-4.071 10.602v36.742c0 4.444 5.145 6.903 8.601 4.107 12.668-10.249 30.231-23.294 57.608-43.322l79.504 56.95c3.825 2.74 9.001 2.621 12.695-.292 30.286-23.885 163.514-128.349 233.179-172.959l18.225 25.269c4.928 6.833 15.503 5.437 18.462-2.451 15.427-41.113 20.144-79.107 21.545-95.737.435-5.165-2.956-9.868-7.993-11.086z" fill="#fb4a59"/><path d="m480.894 239.8c-1.4 16.63-6.12 54.62-21.55 95.74-2.96 7.88-13.53 9.28-18.46 2.45l-11.13-15.43c13.82-38.93 18.17-74.27 19.51-90.14.31-3.63-1.27-7.02-3.97-9.14 11.82 1.85 21.31 3.91 27.6 5.43 5.04 1.22 8.43 5.92 8 11.09z" fill="#f82f40"/></g><g><path d="m438.233 463.262c-.956-4.03-4.999-6.524-9.028-5.566-4.03.956-6.522 4.998-5.566 9.028l9.372 39.507c.818 3.449 3.895 5.771 7.291 5.771.573 0 1.156-.066 1.737-.204 4.03-.956 6.522-4.998 5.566-9.028z"/><path d="m222.534 215.579v7.942c0 17.623 14.337 31.959 31.96 31.959s31.959-14.337 31.959-31.959v-7.942c0-4.142-3.358-7.5-7.5-7.5h-48.919c-4.142 0-7.5 3.358-7.5 7.5zm15 7.5h33.919v.442c0 9.352-7.608 16.959-16.959 16.959s-16.96-7.608-16.96-16.959z"/><path d="m289.016 171.445c2.125-1.543 4.966-2.393 8.001-2.393s5.877.85 8 2.393c1.332.967 2.874 1.433 4.402 1.433 2.319 0 4.607-1.073 6.074-3.092 2.435-3.351 1.691-8.042-1.66-10.476-4.667-3.39-10.639-5.257-16.817-5.257s-12.15 1.867-16.817 5.256c-3.352 2.435-4.095 7.125-1.66 10.476 2.435 3.35 7.125 4.094 10.477 1.66z"/><path d="m228.785 159.308c-4.667-3.39-10.639-5.256-16.817-5.256s-12.15 1.867-16.817 5.256c-3.352 2.435-4.095 7.125-1.661 10.476s7.124 4.095 10.476 1.661c2.125-1.543 4.966-2.393 8.001-2.393s5.877.85 8.001 2.393c1.331.967 2.873 1.432 4.401 1.432 2.319 0 4.607-1.073 6.075-3.093 2.435-3.351 1.692-8.041-1.659-10.476z"/><path d="m256.652 198.103c4.142 0 7.5-3.358 7.5-7.5s-3.358-7.5-7.5-7.5h-5.855c-4.142 0-7.5 3.358-7.5 7.5s3.358 7.5 7.5 7.5z"/><path d="m325.502 24.478c-1.561-2.532-3.447-4.974-5.744-7.273-11.563-11.577-30.891-17.205-59.089-17.205-77.741 0-111.33 45.719-124.433 72.971-2.956 6.147-2.773 13.395.489 19.386.368.675.771 1.321 1.2 1.942-.406 8.553.176 21.275 1.935 36.037-7.346 3.664-13.015 10.079-16.163 18.403-3.465 9.163-3.439 19.604.074 29.403 5.964 16.624 20.759 27.475 35.889 27.475.912 0 1.825-.055 2.738-.135 1.399 9.404 4.001 21.388 8.841 33.592 1.167 2.943 3.989 4.737 6.974 4.737.92 0 1.856-.17 2.763-.53 3.851-1.527 5.734-5.886 4.207-9.736-9.246-23.314-9.411-46.446-9.412-46.666v-55.03c0-8.021 3.43-15.604 9.419-20.912 3.212 1.037 6.425 2.115 9.681 3.209 19.401 6.52 39.463 13.261 66.822 13.261 25.219 0 44.128-6.902 56.252-20.487 9.347 4.758 15.267 14.288 15.267 24.929v55.021c0 .247-.171 24.909-10.353 48.986-13.054 30.87-36.056 46.522-68.367 46.522-21.304 0-38.7-6.88-51.706-20.449-2.867-2.992-7.614-3.091-10.604-.225s-3.091 7.614-.225 10.604c8.523 8.892 18.515 15.417 29.86 19.587-.844 8.955-6.081 16.999-14.113 21.392-9.938 5.431-20.877 9.494-32.516 12.084l-8.158 1.255c-21.948 3.376-42.189 14.066-57.382 30.2-6.069-2.688-13.313-1.873-18.643 2.388-20.283 16.208-37.863 31.982-52.433 47.031v-376.495c0-4.142-3.358-7.5-7.5-7.5s-7.5 3.358-7.5 7.5v438.484c0 4.975 2.788 9.396 7.276 11.538 4.486 2.14 9.675 1.528 13.542-1.6 7.285-5.894 16.375-12.845 27.911-21.439l-10.917 46.037c-.956 4.03 1.537 8.072 5.567 9.028.582.138 1.164.204 1.737.204 3.396 0 6.474-2.323 7.291-5.771l14.58-61.48c.131-.553.192-1.106.198-1.651 2.133-1.566 4.308-3.162 6.571-4.82l40.433 28.962v37.258c0 4.142 3.358 7.5 7.5 7.5s7.5-3.358 7.5-7.5v-26.514l19.655 14.079c3.131 2.244 6.825 3.359 10.515 3.359 3.971 0 7.937-1.292 11.192-3.859 8.569-6.758 25.243-19.859 46.337-36.195h115.77v49.13c0 4.142 3.358 7.5 7.5 7.5s7.5-3.358 7.5-7.5l-.004-79.485c0-4.142-3.358-7.5-7.5-7.5s-7.5 3.358-7.5 7.5v15.355h-96.326c10.614-8.16 21.915-16.799 33.572-25.635 3.301-2.502 3.948-7.207 1.446-10.508-2.503-3.301-7.208-3.949-10.508-1.446-44.88 34.02-84.587 65.186-99.575 77.007-1.065.839-2.58.875-3.683.084l-79.504-56.949c-2.633-1.886-6.18-1.869-8.795.044-24.51 17.931-41.712 30.676-54.28 40.648v-32.122c0-2.065.761-4.048 2.144-5.583 15.566-17.288 35.636-35.785 59.654-54.976 1.077-.862 2.605-.909 3.717-.115l71.009 50.732c2.736 1.955 6.438 1.85 9.058-.256 1.215-.977 122.451-98.306 204.391-155.695 1.645-1.151 2.758-2.914 3.093-4.893s-.138-4.01-1.312-5.638l-17.144-23.771c-.936-1.298-.568-2.531-.266-3.15.3-.614 1.039-1.653 2.62-1.713 43.697-1.656 81.41 6.141 95.599 9.569 1.447.35 2.406 1.681 2.281 3.165-1.225 14.544-5.732 52.792-21.093 93.731-.556 1.482-1.775 1.855-2.453 1.945-.683.092-1.969.051-2.905-1.247l-18.226-25.269c-2.33-3.229-6.776-4.076-10.127-1.929-24.879 15.931-60.298 41.033-105.272 74.609-3.319 2.478-4.001 7.177-1.523 10.497s7.177 4 10.497 1.523c19.073-14.239 36.379-26.915 51.891-38.015 17.616 11.913 29.997 29.772 34.919 50.514l6.11 25.78c.817 3.449 3.895 5.772 7.292 5.772.572 0 1.155-.066 1.736-.204 4.031-.955 6.523-4.997 5.568-9.027l-6.11-25.782c-5.364-22.607-18.254-42.301-36.587-56.231 12.615-8.88 23.853-16.555 33.616-22.947l14.052 19.483c3.903 5.412 10.441 8.226 17.059 7.34 6.609-.883 12.168-5.307 14.509-11.543 15.443-41.156 20.41-78.904 21.996-97.742.75-8.911-5.013-16.903-13.705-19.004-18.378-4.441-55.77-11.643-99.69-9.979-6.657.252-12.608 4.131-15.533 10.124-2.929 6.001-2.324 13.091 1.58 18.503l12.707 17.618c-23.154 16.383-48.975 35.53-74.147 54.601-7.059-4.446-11.629-11.998-12.403-20.392 22.154-8.138 39.056-25.24 49.68-50.624 5.425-12.962 8.255-25.826 9.736-35.797.909.079 1.818.133 2.726.133 15.129 0 29.934-10.851 35.907-27.471 3.513-9.798 3.539-20.24.072-29.403-3.2-8.456-9.003-14.943-16.524-18.575 3.398-34.983 1.616-60.671-5.309-76.376-5.71-12.909-19.27-22.963-37.961-29.307zm45.601 148.595c-3.988 11.094-13.679 18.246-23.005 17.5.106-2.152.113-3.464.113-3.693v-43.494c3.181-1.264 7.597-2.125 12.401-.405 4.823 1.728 8.606 5.658 10.652 11.066 2.206 5.828 2.148 12.588-.161 19.026zm-233.211.006c-2.311-6.443-2.369-13.203-.164-19.033 2.045-5.408 5.825-9.338 10.643-11.065 4.805-1.72 9.22-.859 12.401.405v43.497c0 .223.007 1.534.115 3.694-9.327.748-19.014-6.4-22.995-17.498zm23.081-45.266c-2.123-.468-4.263-.726-6.395-.771-1.085-9.364-1.701-17.346-1.841-23.852 5.763.736 11.197 1.81 16.465 3.112-4.635 6.258-7.493 13.68-8.229 21.511zm156.866-66.777c0 33.183-18.891 51.373-56.146 51.373-24.906 0-42.945-6.062-62.044-12.479-13.923-4.678-28.32-9.516-45.242-11.648-1.925-.243-3.568-1.372-4.507-3.097-.976-1.792-1.029-3.875-.145-5.713 11.576-24.079 41.38-64.472 110.914-64.472 23.679 0 39.989 4.309 48.477 12.806 8.721 8.731 8.707 21.185 8.693 33.23zm15 .017c.006-5.377.01-11.578-.919-17.931 8.9 4.468 14.878 10.07 17.82 16.724 5.693 12.91 7.152 36.097 4.258 67.211-1.995.068-3.994.317-5.98.754-1.308-14.115-9.416-26.546-21.725-33.439 4.344-9.047 6.546-21.089 6.546-33.319zm-92.541 296.822c-21.847-3.392-39.105-13.898-48.623-21.458 8.144-2.639 15.917-5.973 23.225-9.967 11.668-6.383 19.526-17.757 21.53-30.61 5.741 1.022 11.763 1.539 18.061 1.539 6.295 0 12.316-.528 18.061-1.555 1.563 10.178 6.764 19.399 14.587 25.921-16.46 12.558-32.395 24.875-46.841 36.13zm-61.099 48.172-56.937-40.679c12.7-12.732 29.209-21.17 47.05-23.915l4.581-.705c6.671 6.612 24.328 21.894 51.02 29.149-21.531 16.875-38.161 30.115-45.714 36.15z"/><path d="m55.48 342.809h12.737c4.142 0 7.5-3.358 7.5-7.5s-3.358-7.5-7.5-7.5h-12.737c-4.142 0-7.5 3.358-7.5 7.5s3.358 7.5 7.5 7.5z"/><path d="m55.48 290.615h12.737c4.142 0 7.5-3.358 7.5-7.5s-3.358-7.5-7.5-7.5h-12.737c-4.142 0-7.5 3.358-7.5 7.5s3.358 7.5 7.5 7.5z"/><path d="m55.48 238.422h12.737c4.142 0 7.5-3.358 7.5-7.5s-3.358-7.5-7.5-7.5h-12.737c-4.142 0-7.5 3.358-7.5 7.5s3.358 7.5 7.5 7.5z"/><path d="m55.48 186.228h12.737c4.142 0 7.5-3.358 7.5-7.5s-3.358-7.5-7.5-7.5h-12.737c-4.142 0-7.5 3.358-7.5 7.5s3.358 7.5 7.5 7.5z"/><path d="m55.48 134.035h12.737c4.142 0 7.5-3.358 7.5-7.5s-3.358-7.5-7.5-7.5h-12.737c-4.142 0-7.5 3.358-7.5 7.5s3.358 7.5 7.5 7.5z"/><path d="m55.48 81.841h12.737c4.142 0 7.5-3.358 7.5-7.5s-3.358-7.5-7.5-7.5h-12.737c-4.142 0-7.5 3.358-7.5 7.5s3.358 7.5 7.5 7.5z"/></g></g></svg>