<svg id="Capa_1" enable-background="new 0 0 512 512" height="512" viewBox="0 0 512 512" width="512" xmlns="http://www.w3.org/2000/svg"><g><g><g><path d="m487.87 131.022c0-9.321-7.558-16.87-16.87-16.87h-429.999c-9.312 0-16.87 7.549-16.87 16.87v210.605l21.561 20v.004h420.616v-.004l21.562-20z" fill="#2b3890"/><path d="m471 114.152h-17.124c9.312 0 16.87 7.549 16.87 16.87v226.488l17.124-15.883v-210.605c0-9.321-7.558-16.87-16.87-16.87z" fill="#242e7a"/></g><path d="m487.87 341.627v58.793c0 9.322-7.558 16.879-16.87 16.879h-429.999c-9.312 0-16.87-7.558-16.87-16.879v-58.793z" fill="#dae7ef"/><path d="m470.746 341.627v58.793c0 9.322-7.558 16.879-16.87 16.879h17.124c9.312 0 16.87-7.558 16.87-16.879v-58.793z" fill="#c1d5e4"/></g><g><path d="m50.257 341.631v-198.425c0-1.618 1.312-2.93 2.93-2.93h405.627c1.618 0 2.93 1.312 2.93 2.93v198.426h-411.487z" fill="#b1e4f9"/><path d="m443.464 140.276v201.355h18.28v-198.425c0-1.618-1.312-2.93-2.93-2.93z" fill="#90d8f9"/></g><path d="m348.182 504.5h-184.364c-2.158 0-3.66-2.146-2.92-4.173l4.213-11.544c1.955-5.357 8.001-9.031 14.863-9.031h152.053c6.862 0 12.908 3.674 14.863 9.031l4.213 11.544c.739 2.027-.762 4.173-2.921 4.173z" fill="#dae7ef"/><path d="m298.161 417.3h-84.321c7.757 24.512.698 46.574-21.178 62.453h126.676c-21.875-15.88-28.935-37.941-21.177-62.453z" fill="#c1d5e4"/><path d="m213.84 417.3c1.945 6.148 2.958 12.141 3.04 17.922h78.242c.082-5.781 1.094-11.774 3.04-17.922z" fill="#98b9d3"/><path d="m116.04 7.5h279.921v334.131h-279.921z" fill="#eab14d"/><path d="m375.402 7.5h20.559v334.131h-20.559z" fill="#e7a52e"/><path d="m360.674 67.924h-209.348c-3.222 0-5.835-2.612-5.835-5.835v-14.137c0-3.222 2.612-5.835 5.835-5.835h209.348c3.222 0 5.835 2.612 5.835 5.835v14.138c0 3.222-2.612 5.834-5.835 5.834z" fill="#2b3890"/><path d="m360.674 42.118h-16.947c3.222 0 5.835 2.612 5.835 5.835v14.137c0 3.222-2.612 5.835-5.835 5.835h16.947c3.222 0 5.835-2.612 5.835-5.835v-14.138c0-3.222-2.612-5.834-5.835-5.834z" fill="#242e7a"/><path d="m360.674 222.306h-209.348c-3.222 0-5.835-2.612-5.835-5.835v-14.137c0-3.222 2.612-5.835 5.835-5.835h209.348c3.222 0 5.835 2.612 5.835 5.835v14.137c0 3.223-2.612 5.835-5.835 5.835z" fill="#2b3890"/><path d="m360.674 196.5h-16.947c3.222 0 5.835 2.612 5.835 5.835v14.137c0 3.222-2.612 5.835-5.835 5.835h16.947c3.222 0 5.835-2.612 5.835-5.835v-14.137c0-3.223-2.612-5.835-5.835-5.835z" fill="#242e7a"/><g fill="#dae7ef"><circle cx="171.622" cy="137.194" r="26.13"/><circle cx="256" cy="137.194" r="26.13"/><circle cx="340.379" cy="137.194" r="26.13"/></g><path d="m171.622 111.064c-2.704 0-5.312.411-7.764 1.173 10.64 3.307 18.366 13.23 18.366 24.957s-7.726 21.651-18.366 24.957c2.453.762 5.061 1.173 7.764 1.173 14.431 0 26.13-11.699 26.13-26.13s-11.699-26.13-26.13-26.13z" fill="#c1d5e4"/><path d="m256 111.064c-2.704 0-5.312.411-7.764 1.173 10.64 3.307 18.366 13.23 18.366 24.957s-7.726 21.651-18.366 24.957c2.453.762 5.061 1.173 7.764 1.173 14.431 0 26.13-11.699 26.13-26.13s-11.699-26.13-26.13-26.13z" fill="#c1d5e4"/><path d="m340.378 111.064c-2.704 0-5.311.411-7.764 1.173 10.64 3.307 18.366 13.23 18.366 24.957s-7.726 21.651-18.366 24.957c2.453.762 5.061 1.173 7.764 1.173 14.431 0 26.13-11.699 26.13-26.13s-11.698-26.13-26.13-26.13z" fill="#c1d5e4"/><g><path d="m471 106.652h-67.539v-99.152c0-4.142-3.357-7.5-7.5-7.5h-200.163c-4.142 0-7.5 3.358-7.5 7.5s3.358 7.5 7.5 7.5h192.663v319.127h-264.921v-319.127h42.271c4.142 0 7.5-3.358 7.5-7.5s-3.358-7.5-7.5-7.5h-49.771c-4.142 0-7.5 3.358-7.5 7.5v99.152h-67.539c-13.438 0-24.37 10.933-24.37 24.37v269.398c0 13.442 10.933 24.379 24.37 24.379h167.093c4.161 18.726-1.973 35.011-17.94 47.453h-10.18c-10.057 0-18.861 5.609-21.909 13.959l-4.212 11.543c-1.187 3.25-.711 6.883 1.272 9.718 1.983 2.836 5.232 4.528 8.692 4.528h184.365c3.46 0 6.71-1.692 8.693-4.528 1.982-2.835 2.458-6.468 1.272-9.717l-4.214-11.544c-3.047-8.35-11.852-13.959-21.908-13.959h-10.18c-15.967-12.442-22.101-28.727-17.94-47.453h39.82c4.143 0 7.5-3.357 7.5-7.5s-3.357-7.5-7.5-7.5c-61.491 0-241.226 0-302.726 0-5.167 0-9.37-4.207-9.37-9.379v-51.293c139.372.006 183.695.004 448.739 0v51.293c0 5.172-4.203 9.379-9.37 9.379h-97.286c-4.143 0-7.5 3.357-7.5 7.5s3.357 7.5 7.5 7.5h97.288c13.438 0 24.37-10.937 24.37-24.379v-269.398c0-13.437-10.933-24.37-24.37-24.37zm-131.156 384.702 2.062 5.646h-171.81l2.061-5.646c.726-1.988 3.712-4.102 7.818-4.102h152.052c4.105 0 7.091 2.114 7.817 4.102zm-51.245-66.555c-3.112 17.675.989 33.911 11.881 47.453h-88.96c10.891-13.542 14.993-29.778 11.881-47.453zm114.862-277.023h50.782v186.352h-50.782zm-345.704 186.351v-186.351h50.783v186.352h-50.783zm-26.126-203.105c0-5.167 4.204-9.37 9.37-9.37h67.539v11.124h-58.283c-4.142 0-7.5 3.358-7.5 7.5v193.852h-11.126zm437.612 203.105v-193.851c0-4.142-3.357-7.5-7.5-7.5h-58.282v-11.124h67.539c5.167 0 9.37 4.204 9.37 9.37v203.105z"/><path d="m247.279 371.963c-4.142 0-7.5 3.357-7.5 7.5s3.358 7.5 7.5 7.5h17.443c4.143 0 7.5-3.357 7.5-7.5s-3.357-7.5-7.5-7.5z"/><path d="m374.009 47.952c0-7.353-5.981-13.334-13.334-13.334h-209.349c-7.353 0-13.334 5.982-13.334 13.334v14.138c0 7.353 5.982 13.334 13.334 13.334h209.349c7.353 0 13.334-5.982 13.334-13.334zm-15 12.472h-206.018v-10.806h206.017v10.806z"/><path d="m171.622 170.825c18.544 0 33.63-15.086 33.63-33.63s-15.086-33.63-33.63-33.63-33.63 15.086-33.63 33.63 15.086 33.63 33.63 33.63zm0-52.261c10.273 0 18.63 8.357 18.63 18.63s-8.357 18.63-18.63 18.63-18.63-8.357-18.63-18.63 8.357-18.63 18.63-18.63z"/><path d="m289.631 137.194c0-18.544-15.087-33.63-33.63-33.63-18.544 0-33.63 15.086-33.63 33.63s15.086 33.63 33.63 33.63c18.543.001 33.63-15.086 33.63-33.63zm-52.261 0c0-10.273 8.357-18.63 18.63-18.63s18.63 8.357 18.63 18.63-8.357 18.63-18.63 18.63-18.63-8.357-18.63-18.63z"/><path d="m340.379 103.564c-18.544 0-33.631 15.086-33.631 33.63s15.087 33.63 33.631 33.63 33.63-15.086 33.63-33.63-15.086-33.63-33.63-33.63zm0 52.261c-10.273 0-18.631-8.357-18.631-18.63s8.357-18.63 18.631-18.63c10.272 0 18.63 8.357 18.63 18.63s-8.358 18.63-18.63 18.63z"/><path d="m195.009 262.119h-49.517c-4.142 0-7.5 3.357-7.5 7.5s3.358 7.5 7.5 7.5h49.517c4.142 0 7.5-3.357 7.5-7.5s-3.358-7.5-7.5-7.5z"/><path d="m280.759 262.119h-49.517c-4.142 0-7.5 3.357-7.5 7.5s3.358 7.5 7.5 7.5h49.517c4.143 0 7.5-3.357 7.5-7.5s-3.358-7.5-7.5-7.5z"/><path d="m366.509 262.119h-49.517c-4.143 0-7.5 3.357-7.5 7.5s3.357 7.5 7.5 7.5h49.517c4.143 0 7.5-3.357 7.5-7.5s-3.358-7.5-7.5-7.5z"/><path d="m195.009 299.071h-49.517c-4.142 0-7.5 3.357-7.5 7.5s3.358 7.5 7.5 7.5h49.517c4.142 0 7.5-3.357 7.5-7.5s-3.358-7.5-7.5-7.5z"/><path d="m280.759 299.071h-49.517c-4.142 0-7.5 3.357-7.5 7.5s3.358 7.5 7.5 7.5h49.517c4.143 0 7.5-3.357 7.5-7.5s-3.358-7.5-7.5-7.5z"/><path d="m366.509 299.071h-49.517c-4.143 0-7.5 3.357-7.5 7.5s3.357 7.5 7.5 7.5h49.517c4.143 0 7.5-3.357 7.5-7.5s-3.358-7.5-7.5-7.5z"/><path d="m374.009 202.334c0-7.353-5.981-13.335-13.334-13.335h-209.349c-7.353 0-13.334 5.982-13.334 13.335v14.137c0 7.353 5.982 13.334 13.334 13.334h147.929c4.143 0 7.5-3.358 7.5-7.5s-3.357-7.5-7.5-7.5h-146.264v-10.805h206.017v10.807h-29.767c-4.143 0-7.5 3.358-7.5 7.5s3.357 7.5 7.5 7.5h31.433c7.353 0 13.334-5.982 13.334-13.334v-14.139z"/></g></g></svg>