<svg id="color_line" height="512" viewBox="0 0 74 74" width="512" xmlns="http://www.w3.org/2000/svg" data-name="color line"><path d="m56.693 40.59a8.953 8.953 0 0 0 -1.293-3.335 8.753 8.753 0 0 0 -5.429-3.713l-5.41-1.386h-15.129l-5.41 1.386a8.732 8.732 0 0 0 -5.422 3.713 8.953 8.953 0 0 0 -1.289 3.335z" fill="#89c5cd"/><path d="m56.693 41.09h-39.38a.5.5 0 0 1 -.381-.177.505.505 0 0 1 -.112-.407 9.4 9.4 0 0 1 1.362-3.521 9.263 9.263 0 0 1 5.727-3.93l5.4-1.384a.513.513 0 0 1 .124-.015h15.132a.513.513 0 0 1 .124.015l5.41 1.387a9.292 9.292 0 0 1 5.726 3.927 9.4 9.4 0 0 1 1.362 3.521.505.505 0 0 1 -.112.407.5.5 0 0 1 -.382.177zm-38.766-1h38.153a8.421 8.421 0 0 0 -1.1-2.566 8.294 8.294 0 0 0 -5.122-3.495l-5.358-1.373h-15l-5.349 1.37a8.274 8.274 0 0 0 -5.122 3.5 8.4 8.4 0 0 0 -1.102 2.564z" fill="#323c6b"/><path d="m55.346 65.694h-36.692a2.859 2.859 0 0 1 -2.846-2.6l-1.77-19.387a2.858 2.858 0 0 1 2.846-3.118h40.232a2.858 2.858 0 0 1 2.846 3.118l-1.77 19.393a2.859 2.859 0 0 1 -2.846 2.594z" fill="#eeefee"/><path d="m59.96 43.71-1.77 19.39a2.834 2.834 0 0 1 -2.66 2.58.355.355 0 0 0 .02-.1l1.77-19.39a2.854 2.854 0 0 0 -2.84-3.12h-40.24a1.148 1.148 0 0 0 -.19.01 2.854 2.854 0 0 1 2.83-2.49h40.24a2.854 2.854 0 0 1 2.84 3.12z" fill="#e1e6e9"/><rect fill="#e7aa6c" height="5.306" rx="1.314" width="51.227" x="11.386" y="65.694"/><path d="m62.61 67v2.682a1.314 1.314 0 0 1 -1.31 1.318h-1.48v-5.31h1.48a1.314 1.314 0 0 1 1.31 1.31z" fill="#d09865"/><ellipse cx="37" cy="52.921" fill="#bbbbcd" rx="4.311" ry="3.192"/><g fill="#323c6b"><path d="m37 56.612c-2.652 0-4.811-1.656-4.811-3.692s2.159-3.691 4.811-3.691 4.811 1.656 4.811 3.691-2.159 3.692-4.811 3.692zm0-6.383c-2.1 0-3.811 1.208-3.811 2.691s1.711 2.692 3.811 2.692 3.811-1.207 3.811-2.692-1.711-2.691-3.811-2.691z"/><path d="m22.166 11.708h-.03a.5.5 0 0 1 -.469-.53c.013-.217.031-.434.056-.651a.513.513 0 0 1 .552-.441.5.5 0 0 1 .442.554c-.023.2-.039.4-.052.6a.5.5 0 0 1 -.499.468z"/><path d="m22.561 9.375a.476.476 0 0 1 -.143-.021.5.5 0 0 1 -.337-.621 11.447 11.447 0 0 1 5.6-6.82.5.5 0 0 1 .47.882 10.442 10.442 0 0 0 -5.111 6.222.5.5 0 0 1 -.479.358z"/><path d="m62.743 46.75a.377.377 0 0 1 -.047 0 .5.5 0 0 1 -.452-.543l.076-.834a.509.509 0 0 1 .544-.453.5.5 0 0 1 .452.544l-.076.833a.5.5 0 0 1 -.497.453z"/><path d="m61.887 56.125a.362.362 0 0 1 -.047 0 .5.5 0 0 1 -.452-.543l.643-7.042a.507.507 0 0 1 .544-.453.5.5 0 0 1 .452.544l-.643 7.041a.5.5 0 0 1 -.497.453z"/></g><path d="m29.421 32.132 1.534-1.625 6.045 3.607-4.033 3.419z" fill="#fff"/><path d="m32.967 38.033a.417.417 0 0 1 -.071-.006.5.5 0 0 1 -.347-.22l-3.549-5.401a.5.5 0 0 1 .055-.617l1.534-1.625a.5.5 0 0 1 .619-.086l6.045 3.607a.5.5 0 0 1 .067.811l-4.03 3.418a.5.5 0 0 1 -.323.119zm-2.911-5.845 3.018 4.6 3.07-2.6-5.1-3.043z" fill="#323c6b"/><path d="m44.579 32.132-1.534-1.625-6.045 3.607 4.033 3.419z" fill="#fff"/><path d="m41.033 38.033a.5.5 0 0 1 -.323-.119l-4.033-3.414a.5.5 0 0 1 .067-.811l6.045-3.607a.5.5 0 0 1 .619.086l1.534 1.625a.5.5 0 0 1 .055.617l-3.546 5.4a.5.5 0 0 1 -.347.22.417.417 0 0 1 -.071.003zm-3.177-3.848 3.07 2.6 3.018-4.6-.987-1.046z" fill="#323c6b"/><path d="m47.527 16.906a2.686 2.686 0 0 1 1.8 2.594 3.052 3.052 0 0 1 -2.8 3.1h-19.057a3.052 3.052 0 0 1 -2.8-3.1 2.686 2.686 0 0 1 1.8-2.594z" fill="#fcd462"/><path d="m46.53 23.1h-19.06a3.56 3.56 0 0 1 -3.3-3.6 3.185 3.185 0 0 1 2.168-3.075.525.525 0 0 1 .136-.019h21.052a.525.525 0 0 1 .136.019 3.185 3.185 0 0 1 2.168 3.075 3.56 3.56 0 0 1 -3.3 3.6zm-19.983-5.694a2.219 2.219 0 0 0 -1.377 2.094 2.568 2.568 0 0 0 2.3 2.6h19.06a2.568 2.568 0 0 0 2.3-2.6 2.219 2.219 0 0 0 -1.377-2.094z" fill="#323c6b"/><path d="m46.53 17.88v4.92c0 4.48-3.18 7.47-5.87 9.21a6.742 6.742 0 0 1 -7.32 0c-2.69-1.74-5.87-4.73-5.87-9.21v-4.38h.01c2.43-.43 5.09-3.32 6.9-5.5 2.16 2.42 10.48 5 12.15 4.96z" fill="#fcd462"/><path d="m46.53 17.88v4.92c0 4.48-3.18 7.47-5.87 9.21a6.742 6.742 0 0 1 -7.32 0c-.52-.34-1.06-.73-1.6-1.16a6.743 6.743 0 0 0 6.97-.21c2.69-1.75 5.87-4.74 5.87-9.22v-3.87a8.934 8.934 0 0 0 1.95.33z" fill="#f7be56"/><path d="m48.23 11.62a15.1 15.1 0 0 1 -1.7 6.26c-1.67.04-9.99-2.54-12.15-4.96-1.81 2.18-4.47 5.07-6.9 5.5h-.01c-.13-.2-2.23-3.97-2.32-6.52a7.814 7.814 0 0 1 7.62-7.79 8.471 8.471 0 0 1 1.35.12 7.366 7.366 0 0 1 4.58-1.23c5.32-.02 9.53 3.78 9.53 8.62z" fill="#707583"/><path d="m27.567 18.912a.686.686 0 0 1 -.517-.22c-.023-.035-2.3-3.969-2.4-6.775a8.008 8.008 0 0 1 2.327-5.764 8.137 8.137 0 0 1 5.793-2.543 8.526 8.526 0 0 1 1.25.1 7.783 7.783 0 0 1 4.68-1.21h.045a10.346 10.346 0 0 1 7.385 2.931 8.7 8.7 0 0 1 2.6 6.189 14.048 14.048 0 0 1 -1.49 5.88c-.089.2-.174.395-.249.574a.5.5 0 0 1 -.449.306h-.049c-1.881 0-9.4-2.378-12.077-4.725-1.825 2.157-4.395 4.824-6.849 5.257zm5.203-14.302a7.135 7.135 0 0 0 -5.07 2.237 7 7 0 0 0 -2.046 5.035c.072 2.028 1.538 5 2.076 5.981 2.428-.635 5.3-4.1 6.269-5.262a.5.5 0 0 1 .376-.181.516.516 0 0 1 .382.167c1.953 2.188 9.392 4.546 11.456 4.775.037-.086.076-.174.116-.264a13.21 13.21 0 0 0 1.4-5.478 7.7 7.7 0 0 0 -2.309-5.48 9.393 9.393 0 0 0 -6.72-2.64 6.89 6.89 0 0 0 -4.327 1.16.5.5 0 0 1 -.333.064 7.918 7.918 0 0 0 -1.27-.114z" fill="#323c6b"/><path d="m36.992 33.586a7.2 7.2 0 0 1 -3.925-1.157c-2.781-1.8-6.1-4.93-6.1-9.629v-4.38a.5.5 0 0 1 .5-.5c2.479-.444 5.524-4.114 6.525-5.319a.5.5 0 0 1 .376-.181.516.516 0 0 1 .382.167c2.055 2.3 10.184 4.793 11.733 4.793h.044a.5.5 0 0 1 .5.5v4.92c0 4.7-3.316 7.83-6.1 9.63a7.287 7.287 0 0 1 -3.935 1.156zm-9.022-14.764v3.978c0 4.249 3.068 7.125 5.641 8.79a6.259 6.259 0 0 0 6.779 0c2.572-1.664 5.64-4.54 5.64-8.789v-4.453c-2.426-.293-9.124-2.507-11.614-4.693-1.726 2.039-4.116 4.534-6.446 5.167z" fill="#323c6b"/><path d="m55.346 66.194h-36.692a3.341 3.341 0 0 1 -3.343-3.053l-1.771-19.386a3.358 3.358 0 0 1 3.344-3.664h40.232a3.358 3.358 0 0 1 3.344 3.664l-1.771 19.386a3.341 3.341 0 0 1 -3.343 3.053zm-38.462-25.1a2.36 2.36 0 0 0 -2.348 2.573l1.771 19.383a2.346 2.346 0 0 0 2.347 2.144h36.692a2.346 2.346 0 0 0 2.347-2.144l1.771-19.386a2.36 2.36 0 0 0 -2.348-2.573z" fill="#323c6b"/><path d="m61.3 71.5h-48.6a1.816 1.816 0 0 1 -1.813-1.814v-2.678a1.816 1.816 0 0 1 1.813-1.814h48.6a1.816 1.816 0 0 1 1.813 1.814v2.678a1.816 1.816 0 0 1 -1.813 1.814zm-48.6-5.306a.815.815 0 0 0 -.813.814v2.678a.815.815 0 0 0 .813.814h48.6a.815.815 0 0 0 .813-.814v-2.678a.815.815 0 0 0 -.813-.814z" fill="#323c6b"/><path d="m27.355 68.347a.618.618 0 0 1 -.617.618h-.623a.618.618 0 0 1 0-1.236h.623a.618.618 0 0 1 .617.618z" fill="#fff"/><path d="m24.25 68.347a.618.618 0 0 1 -.617.618h-7.884a.618.618 0 0 1 0-1.236h7.884a.618.618 0 0 1 .617.618z" fill="#fff"/></svg>